<svg width="208" height="18" viewBox="0 0 208 18" fill="none" xmlns="http://www.w3.org/2000/svg">
<path d="M0 14.8623L1.4221 14.079C2.16345 15.1281 3.84199 15.8322 5.57648 15.8322C7.72128 15.8322 9.46975 14.9649 9.46975 13.7526C9.46975 12.3725 7.12446 11.7104 5.03095 11.1183C3.02137 10.5308 0.773994 9.7941 0.773994 7.89642C0.773994 5.99874 3.04002 4.59995 5.91685 4.59995C8.34606 4.59995 10.0013 5.59775 10.6121 6.81002L9.22263 7.50941C8.69576 6.58622 7.37158 5.96144 5.8982 5.96144C4.1404 5.96144 2.63438 6.82868 2.63438 7.92439C2.63438 9.11336 4.43414 9.54698 6.5463 10.1531C9.00349 10.8991 11.3301 11.7524 11.3301 13.7247C11.3301 15.8415 8.71907 17.217 5.56715 17.217C2.87217 17.217 0.778655 16.1679 0 14.8577M28.3113 4.77713H30.1624V17.0491H28.3113V4.77713ZM54.4919 4.58597H54.2867L46.7146 17.0491H48.7149L49.9132 15.0302H58.856L60.0543 17.0491H62.0686L54.4872 4.58597H54.4919ZM50.6405 13.8273L54.3986 7.51408L58.1473 13.8273H50.6359H50.6405ZM52.2072 3.13124H50.6732L53.8531 0.907166H54.9208L58.1194 3.13124H56.576L54.394 1.62988L52.2072 3.13124ZM91.788 4.74449V17.2403H91.6948L80.4672 7.89642V17.0631H78.6162V4.58597H78.7187L89.937 13.9205V4.74449H91.788ZM108.942 10.9178C108.942 7.46745 112.76 4.59995 117.353 4.59995C119.456 4.61394 121.498 5.33665 122.981 6.45568L121.904 7.54206C120.724 6.63751 119.078 6.0034 117.278 6.0034C113.987 6.0034 110.807 8.13421 110.807 10.9131C110.807 13.692 113.959 15.8089 117.311 15.8089C119.162 15.8089 120.733 15.1561 121.913 14.2842L122.981 15.3939C121.619 16.4057 119.782 17.1983 117.362 17.1983C112.812 17.1983 108.937 14.3914 108.937 10.9085M151.777 4.76315V17.0351H149.935V11.5752H141.636V17.0351H139.785V4.76315H141.636V10.2044H149.935V4.76315H151.777ZM171.644 6.12462V10.0086H178.382V11.3934H171.644V15.655H179.417V17.0351H169.793V4.76315H179.417V6.12462H171.644ZM195.881 14.8437L197.303 14.0604C198.044 15.1095 199.723 15.8135 201.457 15.8135C203.602 15.8135 205.35 14.9463 205.35 13.734C205.35 12.3539 203 11.6918 200.912 11.0996C198.897 10.5121 196.655 9.77544 196.655 7.87776C196.655 5.98008 198.921 4.5813 201.798 4.5813C204.227 4.5813 205.882 5.57911 206.493 6.79138L205.103 7.49077C204.576 6.56758 203.252 5.94279 201.779 5.94279C200.021 5.94279 198.52 6.81003 198.52 7.90574C198.52 9.0947 200.319 9.52832 202.432 10.1345C204.889 10.8805 207.215 11.7337 207.215 13.706C207.215 15.8228 204.604 17.1983 201.452 17.1983C198.762 17.1983 196.669 16.1492 195.885 14.839" fill="#F8F8FC"/>
</svg>
